<svg xmlns="http://www.w3.org/2000/svg" width="389" height="238" viewBox="0 0 389 238" version="1.1">
	<path d="M 315 36.500 L 315 51 329.500 51 L 344 51 344 36.500 L 344 22 329.500 22 L 315 22 315 36.500 M 318 36.500 L 318 48 330 48 L 342 48 342 36.500 L 342 25 330 25 L 318 25 318 36.500 M 204.045 69.092 C 193.078 71.242, 180.927 80.437, 175.653 90.578 L 173.093 95.500 173.047 83.228 L 173 70.956 154.388 71.228 L 135.776 71.500 116.877 127 C 94.670 192.213, 97.080 185.413, 96.412 184.745 C 96.114 184.447, 87.207 158.846, 76.618 127.852 L 57.366 71.500 42.159 71.224 L 26.951 70.948 28.285 74.224 C 29.018 76.026, 40.842 108.435, 54.559 146.245 L 79.500 214.989 96.641 214.995 L 113.783 215 115.246 211.250 C 116.050 209.188, 123.187 189.635, 131.104 167.799 L 145.500 128.099 145.761 171.549 L 146.021 215 160.466 215 L 174.911 215 175.206 166.250 C 175.496 118.143, 175.530 117.426, 177.782 111.855 C 182.956 99.061, 190.309 93.065, 201.825 92.250 C 205.540 91.987, 210.488 92.315, 212.983 92.990 C 219 94.617, 225.025 100.800, 228.098 108.500 L 230.493 114.500 230.798 164.750 L 231.102 215 244.507 215 L 257.911 215 258.206 166.250 C 258.498 117.825, 258.516 117.461, 260.834 111.718 C 266.013 98.887, 273.842 92.857, 286.232 92.157 C 301.381 91.301, 310.929 99.344, 313.911 115.474 C 314.597 119.188, 315 138.683, 315 168.184 L 315 215 329.500 215 L 344 215 344 143.067 L 344 71.135 327.750 70.725 C 318.813 70.500, 308.151 69.727, 304.058 69.008 C 284.375 65.552, 264.965 74.913, 257.357 91.532 C 255.980 94.539, 254.694 97, 254.500 97 C 254.306 97, 253.020 94.539, 251.643 91.532 C 248.499 84.664, 241.546 77.160, 235.054 73.626 C 226.383 68.907, 214.131 67.115, 204.045 69.092 M 201.929 72.367 C 192.156 75.003, 182.325 83.265, 177.684 92.745 C 175.655 96.891, 173.036 98.758, 171.009 97.506 C 170.425 97.145, 170 92.057, 170 85.441 L 170 74 159.500 74 L 149 74 149 143 L 149 212 160.500 212 L 172 212 172.017 168.250 C 172.037 119.488, 172.447 115.335, 178.303 104.639 C 185.365 91.741, 199.279 86.221, 213.833 90.543 C 223.783 93.498, 229.890 101.694, 232.567 115.687 C 233.677 121.488, 234 133.187, 234 167.588 L 234 212 244.500 212 L 255 212 255.017 168.250 C 255.036 120.890, 255.468 115.930, 260.423 106.152 C 263.692 99.701, 269.042 94.336, 274.911 91.625 C 278.493 89.971, 281.366 89.518, 288 89.561 C 297.894 89.625, 304.023 91.985, 308.988 97.639 L 312 101.070 312 87.142 C 312 70.913, 312.874 72.058, 299.881 71.264 C 285.078 70.360, 274.717 74.153, 266.031 83.657 C 263.396 86.540, 260.399 90.949, 259.370 93.455 C 256.384 100.733, 252.642 100.743, 249.649 93.483 C 247.316 87.821, 240.093 79.725, 234.398 76.387 C 225.692 71.286, 212.157 69.610, 201.929 72.367 M 33.347 80.250 C 34.628 83.688, 45.962 114.748, 58.532 149.274 L 81.387 212.049 96.871 211.774 L 112.354 211.500 127.659 169.500 L 142.963 127.500 142.981 100.684 L 143 73.867 140.326 74.184 C 137.727 74.491, 137.078 76.179, 117.370 133.873 C 106.215 166.528, 96.909 193.424, 96.690 193.643 C 96.472 193.862, 87.115 167.035, 75.896 134.029 L 55.500 74.017 43.259 74.009 L 31.017 74 33.347 80.250 M 318 143 L 318 212 329.500 212 L 341 212 341 143 L 341 74 329.500 74 L 318 74 318 143" stroke="none" fill="#FFFFFF" fill-rule="nonzero"/>
</svg>
